<?xml version="1.0" standalone="no"?>
<!DOCTYPE svg PUBLIC "-//W3C//DTD SVG 20010904//EN"
 "http://www.w3.org/TR/2001/REC-SVG-20010904/DTD/svg10.dtd">
<svg version="1.0" xmlns="http://www.w3.org/2000/svg"
 width="225.000000pt" height="225.000000pt" viewBox="0 0 225.000000 225.000000"
 preserveAspectRatio="xMidYMid meet">

<g transform="translate(0.000000,225.000000) scale(0.100000,-0.100000)"
fill="#000000" stroke="none">
<path d="M1025 2244 c-184 -30 -455 -157 -455 -215 0 -28 -39 -59 -66 -53 -29
7 -140 -114 -188 -206 -63 -119 -60 -213 9 -280 l34 -33 -19 -25 c-31 -39 -26
-85 15 -131 l35 -39 -24 -15 c-13 -9 -33 -36 -45 -60 -58 -120 12 -256 141
-273 47 -6 49 -8 81 -68 41 -78 139 -182 223 -236 l65 -43 -28 -18 c-18 -12
-46 -19 -79 -19 -49 0 -53 -2 -107 -59 -49 -51 -57 -65 -57 -98 0 -22 4 -43
10 -49 6 -6 3 -28 -10 -62 -48 -126 -45 -177 15 -232 l27 -25 509 -3 c563 -3
550 -4 589 61 26 42 25 79 -5 171 -20 61 -23 80 -14 100 21 44 3 89 -56 145
-51 48 -57 51 -107 51 -35 0 -61 6 -76 18 l-24 18 65 43 c67 43 81 60 71 86
-10 24 -33 18 -100 -26 -258 -168 -603 -114 -795 124 -82 102 -123 206 -135
346 -7 69 -6 73 12 68 10 -4 64 -15 119 -26 321 -63 770 -52 1054 26 l24 6 -7
-74 c-11 -124 -53 -242 -117 -328 -25 -34 -22 -65 8 -69 23 -3 59 42 102 126
18 36 26 42 53 42 94 0 178 89 178 189 0 60 -34 131 -71 151 -19 11 -19 13 15
51 42 46 47 92 16 131 l-19 25 34 33 c100 97 59 263 -110 438 -186 195 -420
307 -660 317 -55 2 -113 1 -130 -1z m135 -435 c31 -66 57 -85 125 -94 30 -3
58 -11 61 -17 4 -5 -14 -31 -38 -56 -57 -59 -61 -71 -48 -144 6 -33 9 -63 5
-66 -3 -3 -30 6 -61 21 -67 33 -107 34 -159 2 -64 -40 -67 -36 -59 54 l6 79
-46 50 c-25 27 -46 54 -46 59 0 6 27 13 59 17 70 8 90 23 126 94 15 28 33 52
39 52 7 0 23 -23 36 -51z m-247 -306 c-13 -53 -8 -92 17 -118 31 -33 76 -33
142 1 l52 26 53 -26 c69 -33 106 -33 140 0 24 24 25 30 19 85 l-6 59 33 0 c46
0 206 -27 301 -51 88 -22 173 -63 190 -92 26 -43 -95 -101 -299 -142 -210 -43
-656 -42 -867 1 -20 4 -31 17 -48 56 -24 57 -23 114 5 167 13 26 22 30 87 41
40 6 80 13 88 14 8 2 34 4 58 5 41 1 42 0 35 -26z m926 -308 c40 -34 56 -84
41 -130 -13 -39 -62 -85 -91 -85 -22 0 -22 0 -9 58 6 24 11 75 12 113 0 38 4
69 9 69 4 0 21 -11 38 -25z m-1384 5 c-7 -11 11 -177 21 -205 11 -29 -37 -16
-72 19 -30 30 -34 40 -34 84 0 41 5 55 29 81 27 28 71 45 56 21z m558 -738
c31 -31 57 -61 57 -67 0 -6 -13 -26 -29 -45 l-28 -34 -28 29 c-32 35 -60 93
-69 148 -7 37 -6 38 16 32 13 -4 49 -32 81 -63z m307 -11 c-11 -40 -65 -121
-86 -128 -6 -2 -23 15 -38 38 l-28 41 58 59 c85 86 119 82 94 -10z m-178 27
l-22 -22 -22 22 -22 22 44 0 44 0 -22 -22z m-394 -37 c3 -16 -8 -35 -35 -63
-40 -41 -68 -46 -87 -16 -9 15 -3 26 34 63 50 51 83 57 88 16z m832 -8 c31
-27 40 -43 38 -62 -5 -42 -35 -38 -84 10 -46 46 -51 58 -32 77 19 19 35 14 78
-25z m-432 -133 c12 -16 22 -32 22 -35 0 -3 -23 -5 -50 -5 l-50 0 22 35 c13
19 26 35 29 35 3 0 15 -13 27 -30z m11 -160 c15 -71 16 -70 -38 -70 l-49 0 10
48 c14 70 15 72 42 72 21 0 26 -7 35 -50z"/>
<path d="M789 1070 c-40 -39 -38 -83 3 -88 22 -3 29 2 34 22 8 34 41 35 54 1
7 -17 17 -25 34 -25 31 0 39 23 22 65 -27 63 -97 75 -147 25z"/>
<path d="M1329 1070 c-40 -39 -38 -83 3 -88 22 -3 29 2 34 22 8 34 41 35 54 1
7 -17 17 -25 34 -25 31 0 39 23 22 65 -27 63 -97 75 -147 25z"/>
<path d="M1037 963 c-15 -14 -6 -51 16 -65 37 -24 74 -29 109 -15 43 18 61 41
53 67 -8 24 -24 25 -63 3 -28 -16 -31 -16 -55 0 -28 18 -49 22 -60 10z"/>
</g>
</svg>
